<svg width="226" height="199" viewBox="0 0 226 199" fill="none" xmlns="http://www.w3.org/2000/svg">
<path d="M223.964 196.168C223.569 196.719 223.171 197.265 222.777 197.807C221.643 198.587 220.298 199.003 218.921 199H6.83729C5.52196 199.001 4.23452 198.622 3.13085 197.907C2.76457 197.425 2.40241 196.939 2.03613 196.453L2.40241 196.253L109.769 136.855C110.721 136.329 111.792 136.052 112.88 136.051C113.969 136.05 115.04 136.323 115.994 136.847L223.602 195.967L223.964 196.168Z" fill="url(#paint0_linear)"/>
<path d="M219.152 69.8844L126.005 15.6679C122.087 13.3875 117.643 12.1859 113.119 12.1837C108.595 12.1814 104.15 13.3786 100.23 15.6551L6.84848 69.8844C5.03294 69.887 3.2925 70.615 2.00872 71.9089C0.724932 73.2028 0.00256834 74.957 0 76.7868V192.098C0.00211531 193.928 0.72433 195.682 2.00821 196.976C3.29209 198.27 5.0328 198.998 6.84848 199H219.152C220.967 198.997 222.707 198.269 223.991 196.975C225.274 195.681 225.997 193.927 226 192.098V76.7868C225.997 74.957 225.275 73.2028 223.991 71.9089C222.708 70.615 220.967 69.887 219.152 69.8844ZM225.194 192.098C225.19 193.712 224.553 195.258 223.42 196.4C222.288 197.541 220.753 198.184 219.152 198.188H6.84848C5.24673 198.185 3.7114 197.542 2.57878 196.401C1.44616 195.259 0.808586 193.712 0.805704 192.098V76.7868C0.807653 75.1721 1.44493 73.6242 2.57775 72.4824C3.71057 71.3407 5.24644 70.6984 6.84848 70.6964L100.23 16.4671C104.15 14.1907 108.595 12.9935 113.119 12.9957C117.643 12.998 122.087 14.1996 126.005 16.4799L219.152 70.6964C220.754 70.6984 222.289 71.3407 223.422 72.4824C224.555 73.6242 225.192 75.1721 225.194 76.7868V192.098Z" fill="#3F3D56"/>
<path d="M113.119 136.051C112.404 136.053 111.694 135.932 111.019 135.692L110.778 135.606L110.767 135.49L110.634 135.55L110.474 135.478C110.3 135.401 110.128 135.313 109.961 135.218L36.6484 93.2928V7.68923C36.6507 5.65063 37.4475 3.69619 38.8639 2.25468C40.2804 0.813164 42.2009 0.00230721 44.204 0H181.796C183.799 0.00231576 185.719 0.813172 187.136 2.25468C188.552 3.69619 189.349 5.65063 189.351 7.68923V93.4019L116.277 135.218C115.311 135.766 114.224 136.053 113.119 136.051V136.051ZM111.523 135.008C112.985 135.435 114.554 135.257 115.887 134.512L188.556 92.9284V7.68923C188.554 5.86522 187.841 4.11649 186.574 2.82672C185.306 1.53694 183.588 0.811446 181.796 0.809393H44.204C42.4117 0.811438 40.6934 1.53694 39.426 2.82671C38.1587 4.11649 37.4458 5.86521 37.4438 7.68923V92.819L42.2116 95.544L110.351 134.512C110.444 134.566 110.538 134.616 110.634 134.662C110.729 134.616 110.823 134.566 110.916 134.513L111.451 134.206L111.523 135.008Z" fill="#3F3D56"/>
<path d="M223.76 73.9039L194.637 89.9559L189.62 92.7218L116.08 133.261C115.166 133.761 114.137 134.022 113.09 134.02C112.414 134.022 111.742 133.912 111.104 133.694C110.926 133.638 110.752 133.572 110.582 133.497C110.418 133.426 110.257 133.348 110.101 133.261L41.3358 95.3774L36.3194 92.6155L2.24007 73.8409C2.1474 73.7889 2.07943 73.7031 2.05089 73.6021C2.02235 73.5012 2.03554 73.3934 2.08762 73.3019C2.13983 73.2112 2.22663 73.1446 2.32894 73.1165C2.43126 73.0885 2.54073 73.1014 2.63335 73.1524L36.3194 91.7106L41.3358 94.4725L110.494 132.573C110.723 132.699 110.962 132.808 111.208 132.899C111.313 132.938 111.421 132.974 111.529 133.005C112.216 133.212 112.939 133.28 113.653 133.206C114.368 133.131 115.06 132.916 115.687 132.573L189.62 91.8208L194.637 89.055L223.367 73.2193C223.413 73.194 223.463 73.1778 223.515 73.1716C223.568 73.1654 223.621 73.1694 223.671 73.1833C223.722 73.1971 223.769 73.2207 223.811 73.2525C223.852 73.2844 223.887 73.3239 223.913 73.3688C223.938 73.4138 223.955 73.4633 223.961 73.5145C223.967 73.5657 223.963 73.6176 223.949 73.6673C223.935 73.717 223.911 73.7635 223.879 73.8041C223.846 73.8447 223.806 73.8786 223.76 73.9039V73.9039Z" fill="#3F3D56"/>
<path d="M92.3618 24.3673H80.7008C79.8172 24.3673 78.9698 24.0464 78.345 23.4752C77.7202 22.904 77.3691 22.1293 77.3691 21.3214C77.3691 20.5136 77.7202 19.7389 78.345 19.1676C78.9698 18.5964 79.8172 18.2755 80.7008 18.2755H92.3618C93.2454 18.2755 94.0928 18.5964 94.7176 19.1676C95.3425 19.7389 95.6935 20.5136 95.6935 21.3214C95.6935 22.1293 95.3425 22.904 94.7176 23.4752C94.0928 24.0464 93.2454 24.3673 92.3618 24.3673Z" fill="#6C63FF"/>
<path d="M69.9127 34.5204H44.1053C43.2076 34.5204 42.3468 34.1995 41.712 33.6283C41.0773 33.0571 40.7207 32.2823 40.7207 31.4745C40.7207 30.6667 41.0773 29.8919 41.712 29.3207C42.3468 28.7495 43.2076 28.4286 44.1053 28.4286H69.9127C70.8104 28.4286 71.6712 28.7495 72.3059 29.3207C72.9407 29.8919 73.2973 30.6667 73.2973 31.4745C73.2973 32.2823 72.9407 33.0571 72.3059 33.6283C71.6712 34.1995 70.8104 34.5204 69.9127 34.5204Z" fill="#E6E6E6"/>
<path d="M147.478 67.0102H78.5222C77.6765 67.0102 76.8654 66.5823 76.2674 65.8207C75.6694 65.059 75.3335 64.0261 75.3335 62.9489C75.3335 61.8718 75.6694 60.8389 76.2674 60.0772C76.8654 59.3156 77.6765 58.8877 78.5222 58.8877H147.478C148.324 58.8877 149.135 59.3156 149.733 60.0772C150.331 60.8389 150.667 61.8718 150.667 62.9489C150.667 64.0261 150.331 65.059 149.733 65.8207C149.135 66.5823 148.324 67.0102 147.478 67.0102Z" fill="#6C63FF"/>
<path d="M153.62 79.1939H72.3805C71.5438 79.1939 70.7413 78.873 70.1496 78.3017C69.558 77.7305 69.2256 76.9558 69.2256 76.1479C69.2256 75.3401 69.558 74.5654 70.1496 73.9941C70.7413 73.4229 71.5438 73.102 72.3805 73.102H153.62C154.457 73.102 155.259 73.4229 155.851 73.9941C156.443 74.5654 156.775 75.3401 156.775 76.1479C156.775 76.9558 156.443 77.7305 155.851 78.3017C155.259 78.873 154.457 79.1939 153.62 79.1939Z" fill="#E6E6E6"/>
<path d="M153.62 91.3775H72.3805C71.5438 91.3775 70.7413 91.0566 70.1496 90.4854C69.558 89.9142 69.2256 89.1394 69.2256 88.3316C69.2256 87.5238 69.558 86.749 70.1496 86.1778C70.7413 85.6066 71.5438 85.2857 72.3805 85.2857H153.62C154.457 85.2857 155.259 85.6066 155.851 86.1778C156.443 86.749 156.775 87.5238 156.775 88.3316C156.775 89.1394 156.443 89.9142 155.851 90.4854C155.259 91.0566 154.457 91.3775 153.62 91.3775Z" fill="#E6E6E6"/>
<defs>
<linearGradient id="paint0_linear" x1="35.6307" y1="168.541" x2="168.991" y2="168.541" gradientUnits="userSpaceOnUse">
<stop stop-color="#21A4FF"/>
<stop offset="1" stop-color="#2CCEFF"/>
</linearGradient>
</defs>
</svg>
