<svg width="341" height="308" viewBox="0 0 341 308" fill="none" xmlns="http://www.w3.org/2000/svg">
<path d="M140.238 43.6185H0.5V121.954H140.238V43.6185Z" fill="url(#paint0_linear)"/>
<path d="M150.029 114.832H10.2905V35.6069H150.029V114.832ZM11.2221 113.9H149.097V36.539H11.2221V113.9Z" fill="#3F3D56"/>
<path d="M330.709 8.01157H191.861V87.237H330.709V8.01157Z" fill="#F2F2F2"/>
<path d="M340.5 80.1156H200.762V0H340.5V80.1156ZM201.693 79.1731H339.568V0.942536H201.693V79.1731Z" fill="#3F3D56"/>
<path d="M239.457 308H61.4905C61.3667 308 61.2478 307.953 61.1602 307.87C61.0726 307.786 61.0234 307.673 61.0234 307.555C61.0234 307.437 61.0726 307.324 61.1602 307.24C61.2478 307.157 61.3667 307.11 61.4905 307.11H239.457C239.581 307.11 239.7 307.157 239.787 307.24C239.875 307.324 239.924 307.437 239.924 307.555C239.924 307.673 239.875 307.786 239.787 307.87C239.7 307.953 239.581 308 239.457 308Z" fill="#CCCCCC"/>
<path d="M173.178 197.727C173.218 196.883 173.441 196.058 173.832 195.31C174.223 194.563 174.772 193.91 175.441 193.399C176.11 192.888 176.882 192.53 177.703 192.352C178.523 192.173 179.373 192.178 180.192 192.366L187.789 181.595L195.421 184.643L184.48 199.701C184.076 201.064 183.189 202.231 181.986 202.979C180.784 203.728 179.351 204.007 177.958 203.764C176.564 203.521 175.308 202.772 174.428 201.659C173.547 200.546 173.102 199.147 173.178 197.727L173.178 197.727Z" fill="#A0616A"/>
<path d="M181.181 188.304L195.056 165.56L189.403 150.867L197.102 130.855L197.386 130.974C197.572 131.052 201.946 132.955 202.595 139.769L211.442 166.871L187.829 196.728L181.181 188.304Z" fill="#3F3D56"/>
<path d="M107.599 104.2C108.431 104.304 109.23 104.589 109.94 105.034C110.65 105.48 111.254 106.075 111.708 106.779C112.162 107.482 112.456 108.276 112.57 109.105C112.683 109.934 112.613 110.778 112.364 111.577L122.437 119.947L118.831 127.295L104.772 115.275C103.454 114.769 102.368 113.798 101.72 112.546C101.072 111.295 100.906 109.85 101.255 108.485C101.603 107.12 102.441 105.929 103.611 105.14C104.78 104.35 106.199 104.015 107.599 104.2V104.2Z" fill="#A0616A"/>
<path d="M116.206 113.052L137.836 128.775L152.91 124.28L172.28 133.595L172.14 133.87C172.049 134.05 169.822 138.284 162.98 138.39L135.293 145.098L107.306 119.045L116.206 113.052Z" fill="#3F3D56"/>
<path d="M155.368 299.988H148.735L145.579 270.613L155.369 270.613L155.368 299.988Z" fill="#A0616A"/>
<path d="M140.78 297.318H157.149V307.11H134.008V304.734C134.008 302.767 134.721 300.881 135.991 299.49C137.261 298.099 138.984 297.318 140.78 297.318V297.318Z" fill="#2F2E41"/>
<path d="M186.52 299.988H178.68L174.95 270.613L186.521 270.613L186.52 299.988Z" fill="#A0616A"/>
<path d="M170.672 297.318H188.301V307.11H163.379V304.734C163.379 302.767 164.148 300.881 165.515 299.49C166.883 298.099 168.738 297.318 170.672 297.318V297.318Z" fill="#2F2E41"/>
<path d="M189.191 193.168L188.578 236.248L187.964 292.867L174.469 291.636L167.721 213.477L159.134 291.636H145.201L143.798 212.862L148.706 195.629L189.191 193.168Z" fill="#2F2E41"/>
<path d="M147.641 196.308L145.579 196.217L155.16 142.907L151.237 126.794C151.033 125.956 151.141 125.071 151.54 124.308C151.939 123.544 152.601 122.955 153.401 122.652L160.46 119.978L162.954 113.052L182.63 115.193L183.113 120.607C185.246 121.297 202.804 127.203 201.592 133.932C200.396 140.574 193.336 161.47 192.978 162.529L191.741 192.496L191.589 192.573C191.406 192.665 177.844 199.4 163.111 199.399C157.923 199.399 152.586 198.563 147.641 196.308Z" fill="#3F3D56"/>
<path d="M183.77 102.364C187.529 95.4763 185.002 86.8405 178.125 83.0754C171.248 79.3102 162.626 81.8415 158.867 88.7292C155.108 95.6169 157.635 104.253 164.512 108.018C171.389 111.783 180.011 109.252 183.77 102.364Z" fill="#A0616A"/>
<path d="M182.986 108.937C180.216 111.739 175.07 110.235 174.709 106.407C174.681 106.11 174.683 105.811 174.715 105.514C174.902 103.819 175.933 102.279 175.686 100.489C175.63 100.044 175.456 99.6192 175.178 99.2558C172.97 96.4492 167.788 100.511 165.704 97.9704C164.426 96.4125 165.928 93.9597 164.948 92.2184C163.653 89.9203 159.82 91.054 157.417 89.7954C154.742 88.3951 154.902 84.4999 156.663 82.1307C158.81 79.2413 162.574 77.6995 166.292 77.4773C170.009 77.2551 173.701 78.2091 177.171 79.493C181.115 80.9517 185.025 82.9678 187.452 86.2592C190.403 90.262 190.687 95.6433 189.211 100.324C188.313 103.171 185.249 106.649 182.986 108.937Z" fill="#2F2E41"/>
<defs>
<linearGradient id="paint0_linear" x1="23.0842" y1="69.0579" x2="157.029" y2="83.0128" gradientUnits="userSpaceOnUse">
<stop stop-color="#6C63FF"/>
<stop offset="1" stop-color="#2CA9FF"/>
</linearGradient>
</defs>
</svg>
