<svg width="358" height="296" viewBox="0 0 358 296" fill="none" xmlns="http://www.w3.org/2000/svg">
<path d="M316.519 168.811C314.555 185.583 310.475 199.049 304.875 209.788C297.422 224.097 284.675 229.862 273.288 235.895C269.998 237.635 266.577 239.118 263.056 240.33C242.335 247.499 219.144 245.598 200.927 241.812C188.15 239.155 175.18 237.52 162.142 236.924C158.423 236.757 154.701 236.674 150.975 236.675C145.229 236.682 41.7731 238.64 16.5845 187.801C10.3656 175.26 6.10292 159.941 4.57149 141.267C0.238005 88.4736 24.0554 53.8007 54.7773 31.1374C112.894 -11.7338 192.554 -9.93592 249.814 34.0646C287.954 63.3735 323.666 107.731 316.519 168.811Z" fill="#F2F2F2"/>
<path d="M111.784 153.61C111.784 195.71 86.8725 210.41 56.1421 210.41C25.4118 210.41 0.5 195.71 0.5 153.61C0.5 111.51 56.1421 57.9518 56.1421 57.9518C56.1421 57.9518 111.784 111.51 111.784 153.61Z" fill="#6C63FF"/>
<path d="M54.7066 203.924L55.2938 168.701L79.7345 125.125L55.3859 163.175L55.6497 147.338L72.4941 115.811L55.7196 143.147L56.1944 114.662L74.2319 89.5627L56.269 110.183L56.5656 57.9518L54.7012 127.096L54.8545 124.244L36.5158 96.8872L54.5606 129.719L52.8518 161.532L52.8009 160.688L31.6597 131.899L52.7367 163.671L52.523 167.649L52.4848 167.709L52.5024 168.035L48.1673 248.747H53.9592L54.6542 207.058L75.6796 175.364L54.7066 203.924Z" fill="#3F3D56"/>
<path d="M357.5 156.285C357.5 198.385 332.588 213.084 301.858 213.084C271.128 213.084 246.216 198.385 246.216 156.285C246.216 114.184 301.858 60.6265 301.858 60.6265C301.858 60.6265 357.5 114.184 357.5 156.285Z" fill="#6C63FF"/>
<path d="M299.532 206.599L300.119 171.376L324.56 127.8L300.211 165.85L300.475 150.013L317.319 118.486L300.545 145.821L301.02 117.337L319.057 92.2374L301.094 112.857L301.391 60.6265L299.526 129.771L299.68 126.918L281.341 99.5619L299.386 132.394L297.677 164.207L297.626 163.362L276.485 134.573L297.562 166.345L297.348 170.324L297.31 170.383L297.328 170.71L292.993 251.422H298.784L299.479 209.733L320.505 178.039L299.532 206.599Z" fill="#3F3D56"/>
<path d="M241.764 120.989C241.764 166.782 214.461 182.771 180.781 182.771C147.1 182.771 119.797 166.782 119.797 120.989C119.797 75.1957 180.781 16.9398 180.781 16.9398C180.781 16.9398 241.764 75.1957 241.764 120.989Z" fill="#6C63FF"/>
<path d="M178.418 175.872L179.027 137.522L204.373 90.0771L179.123 131.506L179.396 114.262L196.865 79.9363L179.469 109.699L179.961 78.6849L198.667 51.3571L180.039 73.808L180.346 16.9398L178.413 92.223L178.572 89.1173L159.554 59.332L178.267 95.0791L176.495 129.716L176.442 128.797L154.518 97.4524L176.376 132.045L176.154 136.376L176.114 136.442L176.132 136.797L171.637 224.675H177.643L178.364 179.284L200.168 144.776L178.418 175.872Z" fill="#3F3D56"/>
<path d="M309.425 255.134C309.425 265.073 245.053 296 165.646 296C86.2389 296 21.8667 265.073 21.8667 255.134C21.8667 245.195 81.051 222.892 160.458 222.892C239.865 222.892 309.425 245.195 309.425 255.134Z" fill="#3F3D56"/>
<path opacity="0.1" d="M309.425 255.134C309.425 265.073 245.053 296 165.646 296C86.2389 296 21.8667 265.073 21.8667 255.134C21.8667 245.195 81.051 222.892 160.458 222.892C239.865 222.892 309.425 245.195 309.425 255.134Z" fill="black"/>
<path d="M309.425 254.935C309.425 264.812 245.053 272.819 165.646 272.819C86.2389 272.819 21.8667 264.812 21.8667 254.935C21.8667 245.057 81.051 222.892 160.458 222.892C239.865 222.892 309.425 245.057 309.425 254.935Z" fill="#3F3D56"/>
<path d="M214.166 205.952C214.166 220.243 222.528 231.807 232.862 231.807Z" fill="#3F3D56"/>
<path d="M232.862 231.807C232.862 217.516 243.215 205.952 256.009 205.952Z" fill="#6C63FF"/>
<path d="M220.398 207.735C220.398 221.041 225.973 231.807 232.862 231.807Z" fill="#6C63FF"/>
<path d="M232.862 231.807C232.862 213.081 244.807 197.928 259.57 197.928Z" fill="#3F3D56"/>
<path d="M230.191 232.445C230.191 232.445 233.062 232.358 233.927 231.751C234.793 231.143 238.344 230.418 238.558 231.392C238.773 232.366 242.873 236.238 239.632 236.264C236.39 236.29 232.1 235.766 231.236 235.248C230.373 234.729 230.191 232.445 230.191 232.445Z" fill="#A8A8A8"/>
<path opacity="0.2" d="M239.69 235.948C236.448 235.972 232.158 235.483 231.294 235C230.637 234.631 230.374 233.309 230.287 232.699C230.226 232.701 230.191 232.702 230.191 232.702C230.191 232.702 230.373 234.832 231.236 235.316C232.1 235.8 236.391 236.288 239.632 236.264C240.568 236.257 240.891 235.951 240.874 235.498C240.744 235.772 240.387 235.943 239.69 235.948Z" fill="black"/>
<path opacity="0.1" d="M166.981 262.12C194.024 262.12 215.946 258.328 215.946 253.651C215.946 248.973 194.024 245.181 166.981 245.181C139.939 245.181 118.016 248.973 118.016 253.651C118.016 258.328 139.939 262.12 166.981 262.12Z" fill="black"/>
<path d="M189.238 236.265H184.787V246.072H189.238V236.265Z" fill="#FFB9B9"/>
<path d="M189.238 84.6988H171.433V118.578H189.238V84.6988Z" fill="#FF6584"/>
<path d="M202.852 149.783L203.482 154.241L186.887 158.699L184.787 150.526L202.852 149.783Z" fill="#FFB9B9"/>
<path d="M178.053 99.5975C178.053 99.5975 177.644 103.357 176.825 103.357C176.007 103.357 173.141 104.819 173.141 104.819L172.323 108.787L178.053 112.337L187.468 111.293L190.128 107.116L187.468 104.401C187.468 104.401 185.216 99.3887 186.035 98.3445C186.854 97.3002 178.053 99.5975 178.053 99.5975Z" fill="#FFB9B9"/>
<path opacity="0.1" d="M178.053 99.5975C178.053 99.5975 177.644 103.357 176.825 103.357C176.007 103.357 173.141 104.819 173.141 104.819L172.323 108.787L178.053 112.337L187.468 111.293L190.128 107.116L187.468 104.401C187.468 104.401 185.216 99.3887 186.035 98.3445C186.854 97.3002 178.053 99.5975 178.053 99.5975Z" fill="black"/>
<path d="M150.326 233.59C150.326 233.59 148.354 245.716 145.944 246.524C143.534 247.332 155.147 248.747 155.147 248.747L156.023 244.301C156.023 244.301 156.242 236.218 157.119 235.005C157.995 233.792 150.326 233.59 150.326 233.59Z" fill="#FFB9B9"/>
<path d="M172.834 158.23C172.834 158.23 204.679 152.711 204.898 151.649C205.118 150.588 211.487 159.716 207.534 177.547C203.58 195.378 193.698 237.408 193.698 237.408C193.698 237.408 183.595 240.38 183.815 238.045C184.034 235.71 187.329 195.165 187.329 195.165L185.133 177.971L181.399 180.094L165.806 209.812L157.9 235.497C157.9 235.497 147.798 237.196 149.335 233.587C150.872 229.978 155.924 201.958 155.924 201.958L169.759 162.475C169.759 162.475 169.32 158.23 172.834 158.23Z" fill="#2F2E41"/>
<path d="M181.225 103.422C186.142 103.422 190.128 99.0308 190.128 93.6145C190.128 88.1981 186.142 83.8072 181.225 83.8072C176.309 83.8072 172.323 88.1981 172.323 93.6145C172.323 99.0308 176.309 103.422 181.225 103.422Z" fill="#FFB9B9"/>
<path d="M190.533 105.205C190.533 105.205 186.247 109.186 176.176 108.139C166.104 107.091 178.961 130.561 178.961 130.561L183.033 154.241C183.033 154.241 201.034 152.145 201.676 148.164C202.319 144.182 190.533 105.205 190.533 105.205Z" fill="#F2F2F2"/>
<path d="M185.731 126.805C185.731 126.805 180.518 124.272 178.563 117.307C176.609 110.341 174.871 103.165 173.785 103.376C172.868 103.554 164.365 106.742 161.609 108.873C161.1 109.266 160.788 109.624 160.754 109.919C160.537 111.819 168.573 130.815 168.573 130.815C168.573 130.815 174.871 144.535 172.265 148.967C169.659 153.4 169.441 159.099 174.22 158.677C178.998 158.254 194.853 157.41 192.681 145.59C192.681 145.59 196.807 153.822 208.318 147.912C208.318 147.912 215.268 146.857 215.051 144.535C214.834 142.213 203.975 122.161 203.975 122.161C203.975 122.161 202.237 113.296 205.495 109.919L198.11 101.476C198.11 101.476 196.373 98.9436 194.635 100.21C192.898 101.476 188.989 103.587 188.337 103.798C187.685 104.009 187.257 103.04 187.257 103.04C185.752 106.098 185.149 109.502 185.513 112.874C186.165 118.362 185.731 126.805 185.731 126.805Z" fill="#2F2E41"/>
<path d="M151.979 244.025C151.979 244.025 151.478 242.407 148.587 244.025C148.587 244.025 149.51 238.94 146.368 238.94C143.226 238.94 142.104 244.95 142.104 244.95C142.104 244.95 141.206 248.879 135.147 250.497C129.087 252.115 133.8 257.663 138.064 257.663C142.329 257.663 147.939 254.195 147.939 254.195C147.939 254.195 159.61 254.427 159.834 252.115C160.059 249.804 158.712 242.869 157.815 242.869C156.917 242.869 155.121 246.105 155.121 246.105L151.979 244.025Z" fill="#2F2E41"/>
<path d="M187.608 239.974C187.608 239.974 184.886 236.497 183.331 242.292C181.775 248.087 180.609 250.405 181.581 251.333C182.553 252.26 183.331 251.796 182.942 253.651C182.553 255.505 184.109 259.446 187.608 259.446C191.108 259.446 192.08 256.432 191.885 254.346C191.691 252.26 190.136 249.71 190.136 249.71L188.58 243.22L187.608 239.974Z" fill="#2F2E41"/>
<path d="M205.069 88.2651L193.575 92.2042C193.575 92.2042 183.166 98.3317 187.72 99.6447C192.274 100.958 196.178 95.7056 196.178 95.7056L206.153 93.0795L205.069 88.2651Z" fill="#FFB9B9"/>
<path d="M175.029 79.5307C173.673 80.4512 172.595 81.7119 171.569 82.9841C169.484 85.5689 167.442 88.656 167.956 91.9259C168.151 93.1679 168.708 94.3237 169.021 95.5416C169.444 97.1852 169.416 98.9054 169.386 100.601C169.411 101.322 169.321 102.042 169.119 102.735C168.817 103.41 168.462 104.06 168.057 104.68C167.02 106.595 166.995 108.871 166.994 111.045C166.944 111.777 167.045 112.512 167.289 113.204C167.572 113.858 168.1 114.37 168.537 114.934C169.261 115.887 169.745 116.999 169.947 118.175C170.149 119.352 170.063 120.56 169.697 121.697C170.259 121.699 170.811 121.542 171.286 121.245C171.762 120.948 172.142 120.522 172.382 120.018C172.456 120.56 172.409 121.112 172.244 121.633C172.078 122.155 171.799 122.634 171.425 123.036C173.89 122.31 176.533 121.085 177.433 118.696C177.697 117.885 177.846 117.04 177.875 116.188C178.354 110.196 178.627 103.98 176.46 98.3666C175.766 96.5706 174.823 94.8322 174.59 92.923C174.358 91.0138 175.068 88.8075 176.837 88.0191C176.879 88.5078 177.098 88.9651 177.454 89.3058C177.847 89.5956 178.576 89.4138 178.583 88.9276L179.437 90.1072C179.765 89.9477 180.045 89.7057 180.249 89.4054L180.835 90.1164L182.081 89.2178L183.163 90.3746C183.579 90.1394 183.911 89.781 184.112 89.3497C184.345 89.6945 184.633 90.0734 185.049 90.1107C185.957 90.192 186.144 88.7645 186.937 88.3193C187.229 88.191 187.559 88.1711 187.865 88.2631C188.172 88.3552 188.434 88.5531 188.606 88.821C188.933 89.3722 189.052 90.0204 188.942 90.6505C188.614 93.5866 186.087 96.2658 186.836 99.125C187.258 100.733 188.677 102.022 188.784 103.68C188.869 105.004 188.084 106.258 188.096 107.585C188.11 109.141 189.194 110.462 190.252 111.611C192.136 113.655 194.119 115.604 196.2 117.456L195.557 116.341C195.857 116.317 196.159 116.359 196.442 116.462C196.724 116.565 196.981 116.727 197.195 116.938C197.379 116.297 197.073 115.629 196.784 115.027C195.052 111.422 193.654 107.583 193.446 103.596C193.155 98.0536 195.165 92.4247 193.892 87.0203C193.159 83.9944 191.451 81.2878 189.027 79.3108C187.849 78.3492 186.956 77.7733 185.43 77.6673C183.724 77.5204 182.009 77.5337 180.306 77.7071C178.424 77.8846 176.614 78.5102 175.029 79.5307Z" fill="#FF6584"/>
<path d="M196.36 101.544C196.36 101.544 198.734 101.758 199.813 101.544C200.892 101.329 202.402 100.256 202.402 100.256L210.602 94.2495L203.481 95.3221C203.481 95.3221 204.776 85.4535 204.344 85.2389C203.912 85.0244 225.274 80.9482 224.843 87.5988C224.411 94.2495 212.328 107.336 205.423 109.911L200.892 110.554L196.36 101.544Z" fill="#2F2E41"/>
<path d="M219.507 178.313H118.016V202.386H219.507V178.313Z" fill="white"/>
<path d="M206.153 182.771H131.37V196.145H206.153V182.771Z" fill="#3F3D56"/>
<path d="M148.285 189.005C148.258 188.689 146.982 188.548 145.23 188.627C146.245 187.059 146.833 185.807 146.605 185.61C146.391 185.424 145.513 186.228 144.443 187.534C144.342 185.782 144.108 184.554 143.834 184.554C143.536 184.554 143.284 186.015 143.201 188.024C141.713 186.85 140.512 186.161 140.327 186.418C140.15 186.663 140.954 187.698 142.233 188.937C140.546 189.212 139.357 189.599 139.383 189.91C139.41 190.227 140.687 190.368 142.439 190.289C141.424 191.857 140.836 193.108 141.063 193.305C141.278 193.491 142.156 192.687 143.225 191.382C143.326 193.133 143.561 194.361 143.834 194.361C144.132 194.361 144.385 192.9 144.467 190.892C145.955 192.066 147.157 192.755 147.342 192.498C147.518 192.253 146.714 191.217 145.436 189.978C147.123 189.704 148.311 189.316 148.285 189.005Z" fill="white"/>
<path d="M160.749 189.005C160.722 188.689 159.445 188.548 157.694 188.627C158.709 187.059 159.297 185.807 159.069 185.61C158.855 185.424 157.976 186.228 156.907 187.534C156.806 185.782 156.572 184.554 156.298 184.554C156 184.554 155.748 186.015 155.665 188.024C154.177 186.85 152.976 186.161 152.791 186.418C152.614 186.663 153.418 187.698 154.696 188.937C153.009 189.212 151.821 189.599 151.847 189.91C151.874 190.227 153.151 190.368 154.903 190.289C153.887 191.857 153.299 193.108 153.527 193.305C153.742 193.491 154.62 192.687 155.689 191.382C155.79 193.133 156.025 194.361 156.298 194.361C156.596 194.361 156.848 192.9 156.931 190.892C158.419 192.066 159.621 192.755 159.805 192.498C159.982 192.253 159.178 191.217 157.9 189.978C159.587 189.704 160.775 189.316 160.749 189.005Z" fill="white"/>
<path d="M174.103 189.005C174.076 188.689 172.799 188.548 171.048 188.627C172.063 187.059 172.651 185.807 172.423 185.61C172.209 185.424 171.33 186.228 170.261 187.534C170.16 185.782 169.926 184.554 169.652 184.554C169.354 184.554 169.102 186.015 169.019 188.024C167.531 186.85 166.33 186.161 166.145 186.418C165.968 186.663 166.772 187.698 168.05 188.937C166.363 189.212 165.175 189.599 165.201 189.91C165.228 190.227 166.505 190.368 168.257 190.289C167.241 191.857 166.653 193.108 166.881 193.305C167.096 193.491 167.974 192.687 169.043 191.382C169.144 193.133 169.379 194.361 169.652 194.361C169.95 194.361 170.202 192.9 170.285 190.892C171.773 192.066 172.974 192.755 173.159 192.498C173.336 192.253 172.532 191.217 171.254 189.978C172.941 189.704 174.129 189.316 174.103 189.005Z" fill="white"/>
<path d="M186.567 189.005C186.538 188.689 185.133 188.548 183.206 188.627C184.323 187.059 184.969 185.807 184.719 185.61C184.483 185.424 183.517 186.228 182.341 187.534C182.23 185.782 181.972 184.554 181.671 184.554C181.343 184.554 181.065 186.015 180.974 188.024C179.338 186.85 178.016 186.161 177.813 186.418C177.619 186.663 178.503 187.698 179.909 188.937C178.053 189.212 176.746 189.599 176.775 189.91C176.804 190.227 178.209 190.368 180.136 190.289C179.019 191.857 178.372 193.108 178.623 193.305C178.859 193.491 179.825 192.687 181.001 191.382C181.112 193.133 181.37 194.361 181.671 194.361C181.999 194.361 182.276 192.9 182.368 190.892C184.004 192.066 185.326 192.755 185.529 192.498C185.723 192.253 184.839 191.217 183.433 189.978C185.288 189.704 186.596 189.316 186.567 189.005Z" fill="white"/>
<path d="M199.921 189.005C199.889 188.689 198.357 188.548 196.254 188.627C197.473 187.059 198.178 185.807 197.905 185.61C197.648 185.424 196.594 186.228 195.311 187.534C195.19 185.782 194.908 184.554 194.58 184.554C194.222 184.554 193.919 186.015 193.82 188.024C192.035 186.85 190.593 186.161 190.371 186.418C190.159 186.663 191.124 187.698 192.658 188.937C190.634 189.212 189.207 189.599 189.239 189.91C189.271 190.227 190.803 190.368 192.905 190.289C191.687 191.857 190.982 193.108 191.255 193.305C191.512 193.491 192.566 192.687 193.849 191.382C193.97 193.133 194.252 194.361 194.58 194.361C194.938 194.361 195.24 192.9 195.34 190.892C197.125 192.066 198.567 192.755 198.789 192.498C199.001 192.253 198.036 191.217 196.502 189.978C198.526 189.704 199.953 189.316 199.921 189.005Z" fill="white"/>
<path d="M159.959 167.934C159.959 167.934 158.797 181.257 164.375 181.862C169.953 182.468 164.84 166.723 164.84 166.723L159.959 167.934Z" fill="#FFB9B9"/>
<path d="M162.363 109.663L160.819 110.091C160.819 110.091 154.42 159.763 158.613 169.398C158.613 169.398 163.025 167.042 165.232 167.471L168.762 127.005L162.363 109.663Z" fill="#2F2E41"/>
</svg>
