<svg width="248" height="497" viewBox="0 0 248 497" fill="none" xmlns="http://www.w3.org/2000/svg">
<path d="M248 118.105H245.266V43.2961C245.266 31.8133 240.701 20.8007 232.576 12.6811C224.45 4.56154 213.43 0 201.938 0H43.3281C31.8367 0 20.8161 4.56154 12.6905 12.6811C4.56489 20.8007 0 31.8133 0 43.2961V453.704C0 465.187 4.56489 476.199 12.6905 484.319C20.8161 492.438 31.8367 497 43.3281 497H201.938C213.429 497 224.45 492.438 232.575 484.319C240.701 476.199 245.266 465.187 245.266 453.704V171.355H247.999L248 118.105Z" fill="#3F3D56"/>
<path d="M203.287 10.0404H182.688C183.636 12.3728 183.998 14.9035 183.742 17.4095C183.487 19.9155 182.621 22.3199 181.222 24.4108C179.823 26.5016 177.933 28.2148 175.719 29.3994C173.505 30.5839 171.035 31.2035 168.527 31.2035H78.1226C75.6144 31.2032 73.1447 30.5836 70.9311 29.3991C68.7176 28.2146 66.828 26.5016 65.429 24.411C64.03 22.3205 63.1644 19.9164 62.9084 17.4108C62.6525 14.9051 63.0142 12.3747 63.9615 10.0425H44.7192C36.1809 10.0425 27.9922 13.4486 21.9547 19.5116C15.9172 25.5746 12.5254 33.7978 12.5254 42.3722V42.3722V452.12C12.5254 460.694 15.9172 468.917 21.9547 474.98C27.9922 481.043 36.1809 484.449 44.7192 484.449H203.281C211.819 484.449 220.008 481.043 226.046 474.98C232.083 468.917 235.475 460.694 235.475 452.12V452.12V42.3702C235.475 33.7958 232.083 25.5726 226.046 19.5096C220.008 13.4466 211.819 10.0404 203.281 10.0404H203.287V10.0404Z" fill="white"/>
<path d="M122.747 449.308C132.432 449.308 140.283 441.441 140.283 431.737C140.283 422.033 132.432 414.167 122.747 414.167C113.063 414.167 105.212 422.033 105.212 431.737C105.212 441.441 113.063 449.308 122.747 449.308Z" fill="#E6E6E6"/>
<path d="M221.299 225.344H25.6499V264.049H221.299V225.344Z" fill="#E6E6E6"/>
<path d="M29.8213 259.871H217.129V229.526H29.8213V259.871Z" fill="white"/>
<path d="M46.2177 232.884C48.4998 232.884 50.7307 233.562 52.6282 234.833C54.5256 236.103 56.0046 237.909 56.8779 240.021C57.7512 242.134 57.9797 244.459 57.5345 246.702C57.0893 248.944 55.9904 251.004 54.3767 252.621C52.763 254.238 50.707 255.339 48.4688 255.786C46.2305 256.232 43.9105 256.003 41.8021 255.128C39.6937 254.253 37.8916 252.771 36.6238 250.869C35.3559 248.968 34.6792 246.733 34.6792 244.446C34.6792 242.928 34.9777 241.424 35.5575 240.021C36.1374 238.619 36.9873 237.344 38.0587 236.271C39.1302 235.197 40.4022 234.345 41.8021 233.764C43.202 233.183 44.7025 232.884 46.2177 232.884V232.884Z" fill="#6C63FF"/>
<path d="M187.687 239.921H73.8096V242.435H187.687V239.921Z" fill="#E6E6E6"/>
<path d="M187.687 246.456H73.8096V248.97H187.687V246.456Z" fill="#E6E6E6"/>
<path d="M221.299 280.578H25.6499V319.284H221.299V280.578Z" fill="#E6E6E6"/>
<path d="M29.8213 315.105H217.129V284.76H29.8213V315.105Z" fill="white"/>
<path d="M46.2177 311.242C52.5903 311.242 57.7562 306.066 57.7562 299.681C57.7562 293.295 52.5903 288.119 46.2177 288.119C39.8452 288.119 34.6792 293.295 34.6792 299.681C34.6792 306.066 39.8452 311.242 46.2177 311.242Z" fill="#6C63FF"/>
<path d="M187.687 295.156H73.8096V297.67H187.687V295.156Z" fill="#E6E6E6"/>
<path d="M187.687 301.691H73.8096V304.204H187.687V301.691Z" fill="#E6E6E6"/>
<path d="M221.299 335.813H25.6499V374.519H221.299V335.813Z" fill="#E6E6E6"/>
<path d="M29.8213 370.34H217.129V339.995H29.8213V370.34Z" fill="white"/>
<path d="M46.2177 366.477C52.5903 366.477 57.7562 361.3 57.7562 354.915C57.7562 348.53 52.5903 343.353 46.2177 343.353C39.8452 343.353 34.6792 348.53 34.6792 354.915C34.6792 361.3 39.8452 366.477 46.2177 366.477Z" fill="#6C63FF"/>
<path d="M187.687 350.391H73.8096V352.904H187.687V350.391Z" fill="#E6E6E6"/>
<path d="M187.687 356.925H73.8096V359.439H187.687V356.925Z" fill="#E6E6E6"/>
<path d="M124 185.747C153.745 185.747 177.858 161.586 177.858 131.78C177.858 101.975 153.745 77.8131 124 77.8131C94.2544 77.8131 70.1411 101.975 70.1411 131.78C70.1411 161.586 94.2544 185.747 124 185.747Z" fill="#6C63FF"/>
<path d="M145.606 110.444H102.394C100.484 110.447 98.6539 111.205 97.3037 112.552C95.9535 113.9 95.194 115.727 95.1919 117.632V148.438C95.194 150.344 95.9535 152.171 97.3036 153.519C98.6538 154.866 100.484 155.624 102.394 155.626H145.606C147.515 155.624 149.346 154.866 150.696 153.519C152.046 152.171 152.806 150.344 152.808 148.438V117.632C152.806 115.727 152.046 113.9 150.696 112.552C149.346 111.205 147.515 110.447 145.606 110.444V110.444ZM145.606 114.552C145.864 114.553 146.121 114.586 146.37 114.651L124.005 132.458L101.77 114.615C101.975 114.573 102.184 114.552 102.394 114.552H145.606ZM145.606 151.519H102.394C101.576 151.518 100.791 151.193 100.212 150.616C99.6337 150.038 99.3082 149.255 99.3073 148.438V117.909L122.711 136.69C123.075 136.982 123.528 137.142 123.996 137.143C124.464 137.144 124.918 136.986 125.283 136.695L148.693 118.057V148.438C148.692 149.255 148.366 150.038 147.788 150.616C147.209 151.193 146.424 151.518 145.606 151.519V151.519Z" fill="white"/>
</svg>
