<svg width="232" height="199" viewBox="0 0 232 199" fill="none" xmlns="http://www.w3.org/2000/svg">
<path d="M68.1804 196.923C71.9048 193.77 74.167 188.789 73.5737 183.939C72.9804 179.09 69.3059 174.632 64.5396 173.602C59.7733 172.572 54.34 175.423 52.8923 180.088C52.0955 171.093 51.1774 161.722 46.4049 154.062C42.0835 147.126 34.5987 142.163 26.4869 141.276C18.3751 140.388 9.83443 143.741 4.7754 150.156C-0.283637 156.572 -1.52232 165.899 2.0209 173.264C4.63106 178.69 9.4399 182.728 14.4784 186.013C30.7595 196.539 50.2865 200.82 69.4667 198.067" fill="#F2F2F2"/>
<path d="M12.797 143.927C19.4903 149.39 25.6306 155.499 31.1292 162.167C39.7346 172.567 46.6981 184.228 51.7772 196.742C52.149 197.655 50.6696 198.052 50.3019 197.15C47.0719 189.237 43.0759 181.661 38.371 174.53C31.0343 163.39 22.0458 153.436 11.7152 145.011C10.9514 144.388 12.0395 143.309 12.797 143.927V143.927Z" fill="white"/>
<path d="M70.7529 196.923C67.0286 193.77 64.7664 188.789 65.3597 183.939C65.953 179.09 69.6274 174.632 74.3938 173.602C79.1601 172.572 84.5934 175.423 86.0411 180.088C86.8379 171.093 87.756 161.722 92.5285 154.062C96.8499 147.126 104.335 142.163 112.446 141.276C120.558 140.388 129.099 143.741 134.158 150.156C139.217 156.572 140.456 165.899 136.912 173.264C134.302 178.69 129.493 182.728 124.455 186.013C108.174 196.539 88.6469 200.82 69.4667 198.067" fill="#F2F2F2"/>
<path d="M126.136 143.927C119.443 149.39 113.303 155.499 107.804 162.167C99.1988 172.567 92.2352 184.228 87.1561 196.742C86.7843 197.655 88.2638 198.052 88.6315 197.15C96.9418 176.811 110.208 158.885 127.218 145.011C127.982 144.388 126.894 143.309 126.136 143.927V143.927Z" fill="white"/>
<path d="M81.8044 89.5198C88.6944 89.5198 94.2797 83.9231 94.2797 77.0193C94.2797 70.1154 88.6944 64.5187 81.8044 64.5187C74.9145 64.5187 69.3291 70.1154 69.3291 77.0193C69.3291 83.9231 74.9145 89.5198 81.8044 89.5198Z" fill="#F2F2F2"/>
<path d="M43.3396 33.9279H129.291V38.6399H54.3121C49.9036 38.6399 45.5383 39.5099 41.4654 41.2004C37.3925 42.8908 33.6917 45.3686 30.5745 48.4921C27.4572 51.6157 24.9844 55.3239 23.2974 59.405C21.6103 63.4862 20.742 67.8603 20.742 72.2777V125.812H11.337C10.9213 125.812 10.5226 125.646 10.2287 125.352C9.93469 125.057 9.76954 124.657 9.76953 124.241V67.5657C9.76953 63.1483 10.6378 58.7742 12.3249 54.693C14.012 50.6119 16.4847 46.9037 19.602 43.7801C22.7193 40.6566 26.42 38.1788 30.4929 36.4884C34.5658 34.7979 38.9312 33.9279 43.3396 33.9279Z" fill="#F2F2F2"/>
<path d="M59.8721 197.185V125.61H80.7984V197.185C80.7979 197.667 80.6069 198.128 80.2674 198.468C79.9279 198.808 79.4676 198.999 78.9875 199H61.683C61.2029 198.999 60.7426 198.808 60.4031 198.468C60.0636 198.128 59.8726 197.667 59.8721 197.185Z" fill="#3F3D56"/>
<path d="M5.34277 124.199V65.9968C5.35321 56.7315 9.03107 47.8486 15.5694 41.297C22.1078 34.7454 30.9728 31.0601 40.2195 31.0496H128.889V126.215H7.35492C6.82145 126.214 6.31002 126.002 5.9328 125.624C5.55558 125.246 5.34338 124.733 5.34277 124.199ZM128.084 31.8561H40.2195C31.1862 31.8664 22.5258 35.4666 16.1383 41.8671C9.75082 48.2675 6.15785 56.9453 6.14763 65.9968V124.199C6.14798 124.519 6.27529 124.827 6.50163 125.054C6.72796 125.28 7.03484 125.408 7.35492 125.408H128.084V31.8561Z" fill="#3F3D56"/>
<path d="M81.8046 83.4711C79.8842 83.469 78.0429 82.7035 76.6849 81.3428C75.3269 79.9821 74.5631 78.1371 74.5609 76.2128V24.1945C74.5606 23.8738 74.4332 23.5663 74.2069 23.3395C73.9806 23.1127 73.6737 22.9852 73.3536 22.9848H45.1835C44.6501 22.9842 44.1386 22.7716 43.7614 22.3936C43.3842 22.0156 43.172 21.5031 43.1714 20.9686V2.01621C43.172 1.48167 43.3842 0.969195 43.7614 0.591216C44.1386 0.213237 44.6501 0.000618993 45.1835 0H87.0362C87.5697 0.000611537 88.0811 0.213229 88.4583 0.59121C88.8356 0.96919 89.0478 1.48167 89.0484 2.01621V76.2128C89.0462 78.1371 88.2823 79.9821 86.9244 81.3428C85.5664 82.7035 83.7251 83.469 81.8046 83.4711Z" fill="#6C63FF"/>
<path d="M132.108 30.2432C138.179 30.2304 144.007 32.6347 148.308 36.9272C152.61 41.2196 155.034 47.0486 155.047 53.1318V119.388H200.119C201.93 119.385 203.668 120.102 204.951 121.382C206.234 122.662 206.957 124.4 206.96 126.215H109.17V53.1318C109.183 47.0486 111.607 41.2196 115.908 36.9272C120.21 32.6347 126.037 30.2304 132.108 30.2432Z" fill="#3F3D56"/>
<path d="M126.604 67.9735L131.354 87.634L224.267 65.0962L219.517 45.4357C219.46 45.1953 219.343 44.9734 219.177 44.7904C219.011 44.6075 218.802 44.4695 218.569 44.3893C218.396 44.3286 218.214 44.3011 218.032 44.3083L164.324 16.4435C164.009 16.2825 163.647 16.2395 163.304 16.3222C162.96 16.405 162.657 16.6081 162.45 16.8948L136.566 53.0631L126.808 66.7019C126.79 66.7258 126.778 66.7532 126.771 66.7823C126.765 66.8114 126.765 66.8415 126.772 66.8706C126.573 67.2018 126.513 67.5981 126.604 67.9735Z" fill="white"/>
<path d="M126.772 66.8706C126.776 66.8961 126.786 66.9206 126.8 66.9424C126.814 66.9643 126.832 66.9831 126.853 66.9979C126.879 67.0152 126.907 67.0272 126.937 67.0331C126.967 67.0391 126.998 67.0388 127.028 67.0324C127.076 67.0195 127.119 66.9899 127.148 66.9488L127.181 66.9023L127.69 66.1904L136.917 53.301L162.793 17.141C162.941 16.9361 163.157 16.791 163.402 16.7321C163.648 16.6732 163.906 16.7044 164.13 16.8199L217.422 44.4689L217.9 44.7176C217.92 44.7258 217.94 44.7327 217.96 44.7385C217.996 44.7319 218.032 44.7284 218.069 44.728C218.119 44.7112 218.161 44.6759 218.186 44.6293C218.199 44.6047 218.207 44.5779 218.209 44.5502C218.212 44.5225 218.209 44.4946 218.201 44.4681C218.193 44.4416 218.179 44.4169 218.161 44.3955C218.144 44.3741 218.122 44.3565 218.097 44.3435L218.031 44.3083L164.324 16.4435C164.009 16.2825 163.647 16.2395 163.303 16.3222C162.96 16.405 162.657 16.6081 162.45 16.8948L136.565 53.0631L126.807 66.7019C126.79 66.7258 126.777 66.7532 126.771 66.7823C126.765 66.8114 126.765 66.8415 126.772 66.8706Z" fill="#3F3D56"/>
<path d="M154.677 68.8753L156.745 69.1052L172.095 70.809L182.27 71.9378L182.872 72.0048L195.569 62.067L196.056 61.6863L199.055 59.3394L209.724 50.9897L209.788 50.4032L213.584 16.0816C213.635 15.609 213.498 15.1352 213.201 14.7639C212.905 14.3926 212.474 14.1543 212.002 14.1011L161.354 8.4792C160.883 8.42759 160.41 8.56535 160.039 8.86232C159.669 9.15928 159.431 9.59125 159.378 10.0636L156.701 34.2733L155.217 47.6955L153.889 59.7035L153.273 65.28L153.093 66.8953C153.042 67.368 153.18 67.8419 153.477 68.213C153.774 68.5842 154.205 68.8223 154.677 68.8753Z" fill="#E6E6E6"/>
<path d="M168.595 38.791L190.534 41.2258L198.314 42.089C198.658 42.1271 199.005 42.0971 199.337 42.0006C199.669 41.9041 199.979 41.743 200.249 41.5266C200.518 41.3102 200.743 41.0426 200.91 40.7392C201.076 40.4358 201.182 40.1025 201.22 39.7583C201.258 39.4141 201.228 39.0657 201.131 38.7331C201.035 38.4006 200.874 38.0902 200.658 37.8199C200.442 37.5495 200.175 37.3245 199.873 37.1575C199.57 36.9906 199.237 36.885 198.894 36.8469L189.216 35.773L169.176 33.5463C168.482 33.4695 167.786 33.672 167.241 34.1092C166.696 34.5463 166.347 35.1825 166.27 35.8777C166.192 36.573 166.394 37.2704 166.83 37.8167C167.266 38.363 167.901 38.7135 168.595 38.791Z" fill="white"/>
<path d="M167.346 48.5156C167.402 48.5258 167.459 48.5359 167.517 48.5415L192.984 51.3686L197.237 51.8415C197.931 51.9184 198.627 51.716 199.172 51.2786C199.717 50.8413 200.066 50.2049 200.143 49.5095C200.22 48.8141 200.018 48.1166 199.581 47.5704C199.145 47.0243 198.51 46.6743 197.816 46.5974L191.667 45.9157L171.493 43.6758L168.098 43.2988C167.419 43.2229 166.737 43.4146 166.197 43.8333C165.656 44.2519 165.3 44.8648 165.202 45.5423C165.104 46.2198 165.273 46.9088 165.673 47.4637C166.073 48.0185 166.673 48.3958 167.346 48.5156V48.5156Z" fill="white"/>
<path d="M164.463 57.1384C164.672 57.4856 164.957 57.7799 165.298 57.9985C165.639 58.2171 166.025 58.354 166.427 58.3987L176.866 59.5572L195.457 61.621L195.461 61.62L196.055 61.6863L199.054 59.3394C199.073 59.1611 199.073 58.9814 199.055 58.8031C198.991 58.2044 198.726 57.6453 198.303 57.2183C197.879 56.7912 197.323 56.5218 196.726 56.4547L194.143 56.1671L183.899 55.0312L176.527 54.212L167.006 53.1546C166.518 53.1005 166.025 53.1842 165.582 53.3963C165.139 53.6084 164.764 53.9404 164.499 54.3548C164.235 54.7693 164.091 55.2496 164.085 55.7415C164.078 56.2334 164.209 56.7172 164.463 57.1384L164.463 57.1384Z" fill="white"/>
<path d="M179.125 26.9041L184.584 27.5099L186.995 27.7782L190.637 28.1821C191.331 28.259 192.027 28.0566 192.572 27.6192C193.117 27.1819 193.466 26.5455 193.543 25.8501C193.62 25.1547 193.418 24.4572 192.981 23.911C192.545 23.3649 191.91 23.0149 191.216 22.938L179.707 21.6615C179.013 21.5843 178.317 21.7863 177.772 22.2233C177.226 22.6602 176.877 23.2963 176.8 23.9915C176.723 24.6867 176.924 25.3841 177.36 25.9304C177.796 26.4766 178.431 26.8269 179.125 26.9041V26.9041Z" fill="white"/>
<path d="M134.489 41.5065L141.145 69.0535L152.252 71.1698L162.527 73.1299L173.551 75.2318L177.073 75.9034C177.28 75.9425 177.492 75.9371 177.696 75.8876C177.9 75.8381 178.091 75.7457 178.256 75.6165L181.082 73.4049L182.871 72.0048L195.569 62.067L187.495 28.6489C187.416 28.3164 187.242 28.0141 186.995 27.7783C186.778 27.5696 186.512 27.4189 186.222 27.3402C185.932 27.2615 185.627 27.2572 185.335 27.3278L135.808 39.3414C135.347 39.4536 134.949 39.7446 134.702 40.1506C134.454 40.5565 134.378 41.0442 134.489 41.5065Z" fill="#6C63FF"/>
<path d="M149.75 63.4211C149.914 64.1006 150.342 64.6868 150.937 65.0511C151.533 65.4154 152.249 65.5279 152.927 65.3639L181.988 58.3146C182.666 58.1491 183.251 57.721 183.615 57.1242C183.978 56.5273 184.091 55.8104 183.927 55.1307C183.92 55.0969 183.91 55.0637 183.899 55.0312C183.713 54.3758 183.282 53.8178 182.695 53.4742C182.108 53.1305 181.411 53.0279 180.75 53.1878L151.689 60.2372C151.01 60.4023 150.425 60.8303 150.062 61.4272C149.698 62.0242 149.586 62.7413 149.75 63.4211Z" fill="white"/>
<path d="M152.252 71.1697L162.527 73.1299L184.292 67.8503C184.97 67.6857 185.556 67.2578 185.92 66.6607C186.283 66.0636 186.395 65.3462 186.231 64.6664C186.067 63.9865 185.64 63.3999 185.044 63.0356C184.448 62.6712 183.732 62.559 183.053 62.7236L153.992 69.7729C153.385 69.919 152.85 70.2783 152.484 70.7856C152.396 70.9069 152.318 71.0354 152.252 71.1697Z" fill="white"/>
<path d="M173.551 75.2317L177.073 75.9034C177.279 75.9424 177.492 75.937 177.696 75.8876C177.9 75.8381 178.091 75.7457 178.256 75.6164L181.082 73.4048L173.551 75.2317Z" fill="white"/>
<path d="M155.605 48.6498C155.77 49.3294 156.197 49.9156 156.793 50.2799C157.388 50.6441 158.104 50.7566 158.783 50.5926L170.039 47.8623C170.717 47.6968 171.301 47.2687 171.665 46.6719C172.028 46.075 172.141 45.3582 171.978 44.6784C171.89 44.3131 171.725 43.9711 171.493 43.6758C171.181 43.2767 170.762 42.9758 170.284 42.809C169.807 42.6423 169.292 42.6168 168.8 42.7355L157.544 45.4659C156.866 45.6306 156.28 46.0585 155.917 46.6556C155.553 47.2526 155.441 47.97 155.605 48.6498V48.6498Z" fill="white"/>
<path d="M162.526 73.1297L173.552 75.232L177.073 75.904C177.279 75.9426 177.491 75.937 177.695 75.8875C177.899 75.8381 178.09 75.7459 178.256 75.6172L181.084 73.4051L180.091 73.6458L177.996 75.2833C177.878 75.3753 177.741 75.4411 177.596 75.4765C177.45 75.5118 177.299 75.5158 177.152 75.4882L174.544 74.9913L163.518 72.889L162.526 73.1297ZM195.46 61.6216L195.567 62.0658L196.056 61.6849L195.46 61.6216ZM162.526 73.1297L173.552 75.232L177.073 75.904C177.279 75.9426 177.491 75.937 177.695 75.8875C177.899 75.8381 178.09 75.7459 178.256 75.6172L181.084 73.4051L180.091 73.6458L177.996 75.2833C177.878 75.3753 177.741 75.4411 177.596 75.4765C177.45 75.5118 177.299 75.5158 177.152 75.4882L174.544 74.9913L163.518 72.889L162.526 73.1297ZM162.526 73.1297L173.552 75.232L177.073 75.904C177.279 75.9426 177.491 75.937 177.695 75.8875C177.899 75.8381 178.09 75.7459 178.256 75.6172L181.084 73.4051L180.091 73.6458L177.996 75.2833C177.878 75.3753 177.741 75.4411 177.596 75.4765C177.45 75.5118 177.299 75.5158 177.152 75.4882L174.544 74.9913L163.518 72.889L162.526 73.1297ZM126.604 67.9735L139.045 119.472C139.138 119.852 139.377 120.18 139.711 120.384C140.044 120.588 140.445 120.651 140.825 120.56L230.873 98.7169C231.253 98.6244 231.58 98.3847 231.784 98.0504C231.988 97.7161 232.051 97.3145 231.959 96.9338L219.517 45.4356C219.46 45.1953 219.343 44.9733 219.177 44.7904C219.011 44.6074 218.802 44.4694 218.569 44.3892C218.396 44.3285 218.214 44.301 218.032 44.3082C217.819 44.3144 217.611 44.3694 217.422 44.4689C217.336 44.5102 217.254 44.5612 217.178 44.6209L209.788 50.4033L199.055 58.8042L195.459 61.6185L195.46 61.6215L195.457 61.6223L182.271 71.9364L180.091 73.6458L177.996 75.2833C177.878 75.3753 177.741 75.4411 177.596 75.4764C177.45 75.5118 177.299 75.5158 177.152 75.4882L174.544 74.9913L163.518 72.889L152.483 70.7858L128.313 66.1768C128.106 66.1359 127.894 66.1405 127.69 66.1903C127.415 66.2576 127.165 66.4026 126.97 66.608C126.896 66.6887 126.829 66.7766 126.772 66.8705C126.573 67.2017 126.513 67.598 126.604 67.9735ZM162.526 73.1297L173.552 75.232L177.073 75.904C177.279 75.9426 177.491 75.937 177.695 75.8875C177.899 75.8381 178.09 75.7459 178.256 75.6172L181.084 73.4051L180.091 73.6458L177.996 75.2833C177.878 75.3753 177.741 75.4411 177.596 75.4765C177.45 75.5118 177.299 75.5158 177.152 75.4882L174.544 74.9913L163.518 72.889L162.526 73.1297ZM162.526 73.1297L173.552 75.232L177.073 75.904C177.279 75.9426 177.491 75.937 177.695 75.8875C177.899 75.8381 178.09 75.7459 178.256 75.6172L181.084 73.4051L180.091 73.6458L177.996 75.2833C177.878 75.3753 177.741 75.4411 177.596 75.4765C177.45 75.5118 177.299 75.5158 177.152 75.4882L174.544 74.9913L163.518 72.889L162.526 73.1297ZM162.526 73.1297L173.552 75.232L177.073 75.904C177.279 75.9426 177.491 75.937 177.695 75.8875C177.899 75.8381 178.09 75.7459 178.256 75.6172L181.084 73.4051L180.091 73.6458L177.996 75.2833C177.878 75.3753 177.741 75.4411 177.596 75.4765C177.45 75.5118 177.299 75.5158 177.152 75.4882L174.544 74.9913L163.518 72.889L162.526 73.1297Z" fill="white"/>
<path d="M162.526 73.1297L173.552 75.2321L177.073 75.904C177.279 75.9426 177.491 75.937 177.695 75.8876C177.899 75.8381 178.09 75.746 178.256 75.6172L181.084 73.4051L180.091 73.6458L177.996 75.2834C177.878 75.3754 177.741 75.4412 177.596 75.4765C177.45 75.5118 177.299 75.5158 177.152 75.4883L174.544 74.9913L163.518 72.889L162.526 73.1297ZM195.46 61.6216L195.567 62.0659L196.056 61.6849L195.46 61.6216ZM162.526 73.1297L173.552 75.2321L177.073 75.904C177.279 75.9426 177.491 75.937 177.695 75.8876C177.899 75.8381 178.09 75.746 178.256 75.6172L181.084 73.4051L180.091 73.6458L177.996 75.2834C177.878 75.3754 177.741 75.4412 177.596 75.4765C177.45 75.5118 177.299 75.5158 177.152 75.4883L174.544 74.9913L163.518 72.889L162.526 73.1297ZM162.526 73.1297L173.552 75.2321L177.073 75.904C177.279 75.9426 177.491 75.937 177.695 75.8876C177.899 75.8381 178.09 75.746 178.256 75.6172L181.084 73.4051L180.091 73.6458L177.996 75.2834C177.878 75.3754 177.741 75.4412 177.596 75.4765C177.45 75.5118 177.299 75.5158 177.152 75.4883L174.544 74.9913L163.518 72.889L162.526 73.1297ZM127.182 66.9023L127.236 66.9434C127.246 66.9284 127.262 66.915 127.274 66.8992C127.396 66.7721 127.547 66.6772 127.715 66.6232C127.882 66.5692 128.06 66.5576 128.233 66.5896L152.253 71.168L162.526 73.1297L173.552 75.232L177.073 75.904C177.279 75.9426 177.491 75.937 177.695 75.8876C177.899 75.8381 178.09 75.746 178.256 75.6172L181.084 73.4051L180.091 73.6458L177.996 75.2834C177.878 75.3754 177.741 75.4412 177.596 75.4765C177.45 75.5118 177.299 75.5158 177.152 75.4883L174.544 74.9913L163.518 72.889L152.483 70.7858L128.313 66.1769C128.106 66.136 127.894 66.1406 127.69 66.1904L127.182 66.9023ZM126.604 67.9735L139.045 119.472C139.138 119.852 139.377 120.181 139.711 120.385C140.044 120.589 140.445 120.652 140.825 120.56L230.873 98.717C231.253 98.6245 231.58 98.3848 231.784 98.0505C231.988 97.7162 232.051 97.3145 231.959 96.9338L219.517 45.4357C219.46 45.1953 219.343 44.9733 219.177 44.7904C219.011 44.6075 218.802 44.4695 218.569 44.3893C218.396 44.3286 218.214 44.3011 218.032 44.3083C217.819 44.3145 217.611 44.3694 217.422 44.4689C217.336 44.5102 217.254 44.5612 217.178 44.621L209.788 50.4034L199.055 58.8043L195.459 61.6186L195.46 61.6216L195.457 61.6223L182.271 71.9365L180.091 73.6458L177.996 75.2834C177.878 75.3754 177.741 75.4412 177.596 75.4765C177.45 75.5118 177.299 75.5158 177.152 75.4883L174.544 74.9913L163.518 72.889L152.483 70.7858L128.313 66.1769C128.106 66.136 127.894 66.1406 127.69 66.1904C127.415 66.2577 127.165 66.4026 126.97 66.6081C126.896 66.6888 126.829 66.7767 126.772 66.8706C126.573 67.2018 126.513 67.5981 126.604 67.9735ZM127.014 67.874C126.978 67.7222 126.975 67.5641 127.007 67.4113C127.039 67.2584 127.105 67.1147 127.2 66.9907C127.209 66.9725 127.221 66.9563 127.236 66.9435C127.246 66.9284 127.262 66.915 127.274 66.8992C127.396 66.7721 127.547 66.6772 127.715 66.6232C127.882 66.5692 128.06 66.5576 128.233 66.5896L152.253 71.168L162.526 73.1297L173.552 75.2321L177.073 75.904C177.279 75.9426 177.491 75.937 177.695 75.8876C177.899 75.8381 178.09 75.746 178.256 75.6172L181.084 73.4051L182.872 72.0051L195.567 62.0659L196.056 61.6849L199.053 59.339L209.725 50.9881L217.44 44.951C217.557 44.8593 217.693 44.7938 217.837 44.7586C217.877 44.7487 217.919 44.742 217.96 44.7384C217.996 44.7319 218.033 44.7284 218.069 44.728C218.192 44.7268 218.315 44.7468 218.432 44.7872C218.598 44.8452 218.747 44.944 218.866 45.0745C218.984 45.205 219.068 45.3631 219.11 45.5345L231.552 97.0326C231.584 97.1676 231.59 97.3076 231.569 97.4449C231.548 97.5821 231.499 97.7137 231.427 97.8323C231.355 97.9508 231.26 98.054 231.148 98.1358C231.036 98.2175 230.909 98.2764 230.774 98.3089L140.726 120.152C140.455 120.217 140.168 120.172 139.93 120.026C139.692 119.879 139.521 119.644 139.456 119.372L127.014 67.874ZM162.526 73.1297L173.552 75.2321L177.073 75.904C177.279 75.9426 177.491 75.937 177.695 75.8876C177.899 75.8381 178.09 75.746 178.256 75.6172L181.084 73.4051L180.091 73.6458L177.996 75.2834C177.878 75.3754 177.741 75.4412 177.596 75.4765C177.45 75.5118 177.299 75.5158 177.152 75.4883L174.544 74.9913L163.518 72.889L162.526 73.1297ZM162.526 73.1297L173.552 75.2321L177.073 75.904C177.279 75.9426 177.491 75.937 177.695 75.8876C177.899 75.8381 178.09 75.746 178.256 75.6172L181.084 73.4051L180.091 73.6458L177.996 75.2834C177.878 75.3754 177.741 75.4412 177.596 75.4765C177.45 75.5118 177.299 75.5158 177.152 75.4883L174.544 74.9913L163.518 72.889L162.526 73.1297ZM162.526 73.1297L173.552 75.2321L177.073 75.904C177.279 75.9426 177.491 75.937 177.695 75.8876C177.899 75.8381 178.09 75.746 178.256 75.6172L181.084 73.4051L180.091 73.6458L177.996 75.2834C177.878 75.3754 177.741 75.4412 177.596 75.4765C177.45 75.5118 177.299 75.5158 177.152 75.4883L174.544 74.9913L163.518 72.889L162.526 73.1297Z" fill="#3F3D56"/>
<path d="M207.404 88.5993C207.201 87.7555 207.341 86.8654 207.792 86.1245C208.243 85.3836 208.969 84.8522 209.811 84.647L221.176 81.8902C222.017 81.6893 222.903 81.8306 223.64 82.2832C224.378 82.7357 224.906 83.4626 225.109 84.3046C225.313 85.1466 225.175 86.035 224.726 86.7753C224.277 87.5156 223.553 88.0474 222.714 88.2542L211.348 91.011C210.506 91.2143 209.618 91.0745 208.878 90.6224C208.139 90.1703 207.609 89.4427 207.404 88.5993Z" fill="#6C63FF"/>
<path d="M81.8048 79.0355C83.3606 79.0355 84.6218 77.7717 84.6218 76.2128C84.6218 74.6538 83.3606 73.3901 81.8048 73.3901C80.249 73.3901 78.9878 74.6538 78.9878 76.2128C78.9878 77.7717 80.249 79.0355 81.8048 79.0355Z" fill="white"/>
</svg>
